<?xml version="1.0" encoding="iso-8859-1"?>
<!-- Generator: Adobe Illustrator 16.0.0, SVG Export Plug-In . SVG Version: 6.00 Build 0)  -->
<!DOCTYPE svg PUBLIC "-//W3C//DTD SVG 1.1//EN" "http://www.w3.org/Graphics/SVG/1.1/DTD/svg11.dtd">
<svg version="1.1" xmlns="http://www.w3.org/2000/svg" xmlns:xlink="http://www.w3.org/1999/xlink" x="0px" y="0px"
	 width="1197.178px" height="1077.543px" viewBox="0.322 -0.437 1197.178 1077.543"
	 style="enable-background:new 0.322 -0.437 1197.178 1077.543;" xml:space="preserve">
<g id="Layer_5">
	<rect style="fill:#FFFFFF;" width="1197.5" height="1076.235"/>
</g>
<g id="nonbuildings">
	<g>
		<defs>
			<rect id="SVGID_1_" width="1197.5" height="1076.235"/>
		</defs>
		<clipPath id="SVGID_2_">
			<use xlink:href="#SVGID_1_"  style="overflow:visible;"/>
		</clipPath>
		<rect x="1.325" y="339.64" style="clip-path:url(#SVGID_2_);fill:#333333;" width="1457.016" height="11.795"/>
		<rect x="0.492" y="681.469" style="clip-path:url(#SVGID_2_);fill:#333333;" width="1457.016" height="11.796"/>
		<rect x="0.222" y="731.44" style="clip-path:url(#SVGID_2_);fill:#333333;" width="1088.611" height="11.796"/>
		<path style="clip-path:url(#SVGID_2_);fill:#333333;" d="M1082,743.236c0,0,10.834,1.183,41.834-3.567S1163,720.835,1194,716.835
			s-1,0,3.5,0s0-13.25,0-13.25s-32.438,4.164-47.509,15.999C1138.436,728.659,1082,731.44,1082,731.44V743.236z"/>
		<rect x="-0.48" y="799.919" style="clip-path:url(#SVGID_2_);fill:#333333;" width="1071.23" height="11.796"/>
		<rect x="1.862" y="846.714" style="clip-path:url(#SVGID_2_);fill:#333333;" width="1455.646" height="11.796"/>
		<rect x="1.862" y="1018.937" style="clip-path:url(#SVGID_2_);fill:#333333;" width="1184.638" height="11.796"/>
		<rect x="0.492" y="166.937" style="clip-path:url(#SVGID_2_);fill:#333333;" width="1457.849" height="11.795"/>
		<rect x="0.492" y="-4.405" style="clip-path:url(#SVGID_2_);fill:#333333;" width="1457.186" height="8.681"/>
		<rect x="34.124" y="-0.437" style="clip-path:url(#SVGID_2_);fill:#333333;" width="12.5" height="1077.106"/>
		<rect x="201.901" y="166.937" style="clip-path:url(#SVGID_2_);fill:#333333;" width="12" height="348.676"/>
		<rect x="375.982" y="-0.437" style="clip-path:url(#SVGID_2_);fill:none;" width="9.785" height="1077.543"/>
		<rect x="603.704" y="-0.873" style="clip-path:url(#SVGID_2_);fill:none;" width="9.785" height="693.708"/>
		<rect x="603.42" y="847.81" style="clip-path:url(#SVGID_2_);fill:none;" width="10.354" height="204.025"/>
		<rect x="720.148" y="-0.873" style="clip-path:url(#SVGID_2_);fill:#333333;" width="10.348" height="1077.106"/>
		<rect x="372.879" y="-0.873" style="clip-path:url(#SVGID_2_);fill:#333333;" width="10.67" height="1077.979"/>
		<rect x="492.251" y="0.533" style="clip-path:url(#SVGID_2_);fill:#333333;" width="10.497" height="170.604"/>
		<rect x="835.1" y="847.81" style="clip-path:url(#SVGID_2_);fill:#333333;" width="11.406" height="105.025"/>
		<rect x="945.398" y="940.935" style="clip-path:url(#SVGID_2_);fill:#333333;" width="11.678" height="89.897"/>
		<ellipse style="clip-path:url(#SVGID_2_);fill:#333333;" cx="951.238" cy="941.585" rx="5.756" ry="5.5"/>
		<ellipse style="clip-path:url(#SVGID_2_);fill:#333333;" cx="840.75" cy="953.21" rx="5.756" ry="6.125"/>
		<rect x="945" y="851.068" style="clip-path:url(#SVGID_2_);fill:#333333;" width="12.25" height="47.402"/>
		<rect x="117.323" y="172.834" style="clip-path:url(#SVGID_2_);fill:#333333;" width="10.354" height="344.769"/>
		<rect x="946.323" y="339.64" style="clip-path:url(#SVGID_2_);fill:#333333;" width="10.354" height="237.195"/>
		<rect x="949.224" y="-0.873" style="clip-path:url(#SVGID_2_);fill:#333333;" width="10.354" height="283.812"/>
		<rect x="1064.299" y="32.835" style="clip-path:url(#SVGID_2_);fill:#333333;" width="10.355" height="1044.271"/>
		<rect x="1157.323" y="30.259" style="clip-path:url(#SVGID_2_);fill:#333333;" width="10.354" height="692.576"/>
		<rect x="1244.146" y="343.247" style="clip-path:url(#SVGID_2_);fill:#333333;" width="10.354" height="340.332"/>
		<rect x="1254.5" y="173.081" style="clip-path:url(#SVGID_2_);fill:#333333;" width="7.003" height="70.754"/>
		<rect x="1254.5" y="310.161" style="clip-path:url(#SVGID_2_);fill:#333333;" width="7.003" height="35.377"/>
		<rect x="835.847" y="-0.873" style="clip-path:url(#SVGID_2_);fill:#333333;" width="10.354" height="688.239"/>
		<rect x="603.52" y="-0.873" style="clip-path:url(#SVGID_2_);fill:#333333;" width="10.354" height="688.239"/>
		<rect x="601.5" y="853.707" style="clip-path:url(#SVGID_2_);fill:#333333;" width="12.273" height="157.628"/>
		<rect x="594.181" y="1022.335" style="clip-path:url(#SVGID_2_);fill:#333333;" width="12.273" height="53.9"/>
		<rect x="254.5" y="847.81" style="clip-path:url(#SVGID_2_);fill:#333333;" width="12.273" height="229.297"/>
		<rect x="141" y="858.605" style="clip-path:url(#SVGID_2_);fill:#333333;" width="12.273" height="166.229"/>
		<rect y="906.333" style="clip-path:url(#SVGID_2_);fill:#333333;" width="151.5" height="11.771"/>
		<rect x="34.124" y="509.715" style="clip-path:url(#SVGID_2_);fill:#333333;" width="227.876" height="11.796"/>
		<rect x="1009.505" y="57.503" style="clip-path:url(#SVGID_2_);fill:#333333;" width="5.329" height="293.932"/>
		<rect x="895.336" y="343.247" style="clip-path:url(#SVGID_2_);fill:#333333;" width="5.329" height="180.286"/>
		<rect x="894.141" y="57.503" style="clip-path:url(#SVGID_2_);fill:#333333;" width="5.329" height="115.331"/>
		<rect x="779.503" y="26.838" style="clip-path:url(#SVGID_2_);fill:#333333;" width="5.329" height="491.331"/>
		<rect x="663.502" y="341.17" style="clip-path:url(#SVGID_2_);fill:#333333;" width="5.329" height="140.333"/>
		<rect x="1411.396" y="343.247" style="clip-path:url(#SVGID_2_);fill:#333333;" width="10.355" height="732.987"/>
		<rect x="894.34" y="57.503" style="clip-path:url(#SVGID_2_);fill:#333333;" width="174.08" height="5.898"/>
		<rect x="780.105" y="26.81" style="clip-path:url(#SVGID_2_);fill:#333333;" width="173.598" height="5.898"/>
		<rect x="1244.239" y="30.259" style="clip-path:url(#SVGID_2_);fill:#333333;" width="1.809" height="138.958"/>
		<rect x="724.623" y="511.737" style="clip-path:url(#SVGID_2_);fill:#333333;" width="432.7" height="11.796"/>
		<rect x="0.322" y="509.891" style="clip-path:url(#SVGID_2_);fill:#333333;" width="261.678" height="11.444"/>
		<rect x="297.428" y="227.168" style="clip-path:url(#SVGID_2_);fill:#333333;" width="5.13" height="116.079"/>
		<rect x="436.968" y="212.277" style="clip-path:url(#SVGID_2_);fill:#333333;" width="28.398" height="3.98"/>
		<rect x="668.831" y="439.29" style="clip-path:url(#SVGID_2_);fill:#333333;" width="53.868" height="4.975"/>
		<rect x="436.768" y="174.501" style="clip-path:url(#SVGID_2_);fill:#333333;" width="5.398" height="41.757"/>
		<rect x="1083.921" y="29.258" style="clip-path:url(#SVGID_2_);fill:#333333;" width="123.079" height="10.53"/>
		<rect x="251.484" y="509.891" style="clip-path:url(#SVGID_2_);fill:#333333;" width="10.464" height="31.444"/>
		<rect x="237.268" y="530.613" style="clip-path:url(#SVGID_2_);fill:#333333;" width="22.732" height="10.722"/>
		<rect x="110.59" y="514.894" style="clip-path:url(#SVGID_2_);fill:#333333;" width="7.577" height="172.473"/>
		<rect x="114.378" y="509.892" style="clip-path:url(#SVGID_2_);fill:#333333;" width="7.577" height="98.609"/>
		<rect x="120.167" y="611.529" style="clip-path:url(#SVGID_2_);fill:#333333;" width="9.365" height="73.972"/>
		
			<rect x="116.806" y="598.437" transform="matrix(0.7523 -0.6588 0.6588 0.7523 -370.3783 229.9846)" style="clip-path:url(#SVGID_2_);fill:#333333;" width="7.738" height="18.267"/>
		<rect x="297.875" y="227.08" style="clip-path:url(#SVGID_2_);fill:#333333;" width="17.125" height="5.042"/>
		
			<rect x="1180.662" y="936.997" transform="matrix(0.9748 0.2231 -0.2231 0.9748 257.0253 -241.2549)" style="clip-path:url(#SVGID_2_);fill:#333333;" width="31.521" height="160.184"/>
		<rect x="128.5" y="934.503" style="clip-path:url(#SVGID_2_);fill:#333333;" width="18.637" height="7.217"/>
		<path style="clip-path:url(#SVGID_2_);fill:#333333;" d="M1074.654,812.585c0,0,20.596,0.5,37.346,10.5s47,14.5,58.25,15.75
			s12.5,1.5,27.25,2.75s0-12,0-12s-9.408-0.748-23.5-2.5c-12.117-1.506-27.487-3.353-45.75-10.75
			c-38.429-15.566-26.191-12.5-53.596-16.25S1074.654,812.585,1074.654,812.585z"/>
		<ellipse style="clip-path:url(#SVGID_2_);fill:#333333;" cx="951.125" cy="899.369" rx="6.125" ry="7.216"/>
		<circle style="clip-path:url(#SVGID_2_);fill:#333333;" cx="951.4" cy="574.335" r="8.5"/>
		<g style="clip-path:url(#SVGID_2_);">
			<path style="fill:#333333;" d="M1039.501-4.165c-0.33,0.051-0.503,0.707-0.521,1.781C1039.81-3.495,1040.181-4.27,1039.501-4.165
				z"/>
			<path style="fill:#333333;" d="M1083.921,29.668c0,0-18.421-1.667-30.254-4.5c-10.031-2.402-14.79-21.567-14.688-27.552
				c-1.812,2.429-5.812,6.468-5.812,6.468s0.19,3.486,1.162,6.368c-4.433-3.34-10.162-6.368-10.162-6.368l-23.666-2.083
				c0,0-7.167,4.5,0,6.167s13.5,3.667,13.5,3.667s7.314,5.218,11.78,8.403s10.886,7.764,10.886,7.764
				c4.5,4.167,15.334,8.833,26.334,9.667s1.333,0.667,8.333,1.167s8.841,0.74,12.587,0.953S1083.921,29.668,1083.921,29.668z"/>
		</g>
		<rect x="838.833" style="clip-path:url(#SVGID_2_);fill:#333333;" width="164" height="8.168"/>
	</g>
	<g id="details">
		<path style="fill:#97D9F0;" d="M563.5,771.452c-0.005-0.034-0.013-0.066-0.019-0.101c0.005-0.034,0.013-0.065,0.018-0.099h-0.036
			c-1.403-8.688-5.918-14.337-17.659-15.385h-17.944c-11.74,1.048-16.255,6.697-17.658,15.385h-0.037
			c0.005,0.034,0.013,0.066,0.019,0.101c-0.005,0.034-0.013,0.065-0.018,0.099h0.036c1.403,8.688,5.918,14.337,17.658,15.385h8.972
			h8.973c11.74-1.048,16.256-6.697,17.659-15.385H563.5z"/>
		<polygon style="fill:#97D9F0;" points="509.5,397.502 517.5,390.835 520.833,390.835 520.833,402.502 519.5,404.835 
			519.5,413.835 513.167,413.835 501.75,402.419 505.25,398.919 500.792,394.46 504.5,384.835 517.875,384.835 514.833,388.502 
			506.625,388.71 505.5,394.085 		"/>
	</g>
</g>
<g id="buildings">
	<g id="physics">
		<polygon style="fill:none;" points="368.167,255.21 368.5,182.602 339.834,182.602 340.167,255.21 338.667,255.21 
			338.667,316.354 305.5,316.354 305.5,332.834 371.833,332.834 371.833,255.21 		"/>
		<rect x="316.833" y="182.602" style="fill:none;" width="18" height="39.899"/>
		<rect x="282.75" y="182.602" style="fill:none;" width="30.5" height="35.983"/>
		<rect x="231.5" y="206.835" style="fill:none;" width="23.25" height="31.5"/>
		<polygon style="fill:none;" points="340.5,358.585 337.5,358.585 337.5,357.001 335.5,357.001 335.5,355.085 301.5,355.085 
			301.5,375.501 303.5,375.501 322.25,401.085 328.5,401.085 328.5,395.085 331,395.085 331,380.96 333.5,380.96 333.5,369.71 
			337.75,369.71 337.75,366.251 340.75,366.251 340.75,384.835 360.75,384.835 360.75,396.335 354,396.335 354,401.335 
			360.75,401.335 360.75,406.835 363.75,406.835 363.75,403.335 370,403.335 370,375.501 371.833,375.501 371.833,355.085 
			340.5,355.085 		"/>
	</g>
	<rect id="crerar" x="254.833" y="383.835" style="fill:none;" width="40.667" height="75.602"/>
	<g id="med">
		<rect x="260.5" y="468.835" style="fill:none;" width="35" height="30.333"/>
		<polygon style="fill:none;" points="221.5,457.168 221.5,507.168 242.167,507.168 242.167,500.335 257.167,500.335 
			257.167,486.001 244.833,486.001 244.833,472.335 241.167,472.335 241.167,457.168 		"/>
		<polygon style="fill:none;" points="301.5,355.085 221.667,355.085 221.667,436.335 247.5,436.335 247.5,375.335 301.5,375.335 		
			"/>
		<polygon style="fill:none;" points="292.833,246.835 262.833,246.835 262.833,277.502 264.333,277.502 264.333,285.782 
			262.833,285.782 262.833,332.002 292.833,332.002 		"/>
		<polygon style="fill:none;" points="256.501,295.834 252.834,295.834 252.834,256.834 246.501,256.834 246.501,246.835 
			225.667,246.835 225.667,249.501 222.001,249.501 222.001,290.834 220.334,290.834 220.334,332.002 256.501,332.002 		"/>
		<path style="fill:none;" d="M330.167,582.001v-8.832H352.5v-44.667h-6.333v-3h-81.333v25.666h-33v16.167l7,3.834H264.5v10.832
			h-12.333v5.834h-22v-14.666L227,570.003h-38.5v-5.668h37.667v-40.167h-50.334v-11.666h-14.667v-6h33v-26h-11v10h-9.333v-6h-12
			v-7.333h4.333v-2.333H195.5l-0.333-55.001h-21.333v-8h-8.667v6.667h-11v-18.667h-7.333v1.333H145.5v12l-9.333-0.333l-5.999,23.5
			h-19v-38.833h-6.833v9.333H95.5v-8.167H85.333v8.167h-3.167v10.833h-9.833v-6.5h-4.667V395.71H197.5v-40.625H52v40.625h10.5
			v15.459H52v86.5h10.166v25h-9.167v151.164h54.334V546.498h14.622v3.667H132v13.166h42.666v5.5l4.75,4.75h26.917v14.75H200.5
			v-10.833h-65.667v3.667H131.5v16l2,2v78.833h65.5v-26.167h9.667v3.667h5.833v-3.833h10v26.333h52.334v-29.001h17.499v3.499h7.5
			v-3.5h16.667v29.002h53v-95.997H330.167z M132.833,524.168V536.5h-10.879v4.335h-14.788v-18H67.833v-25.333H72.5v-2h5.333
			c0,0,10-15.333,28.999-20.333v-12.333h4v-21.333h21v48.333H151.5v3.667h4v23.667h16l0.333,6.667l3.988,0.332H132.833z
			 M147,598.335h34.5v29.5H147V598.335z M187.833,664.502h-16v7.834h-11v-8h-13.5v-16.167h40.5V664.502z M229.5,599.168h-4v32
			h-26.333v-40H229.5V599.168z M242,665.835h-7v-20h7V665.835z M264.5,665.835h-7v-20h7V665.835z M264.833,628.835h-15v-6.667
			h-11.667v-22.666h-4v-8.667h18v4h12.667V628.835z M330.833,602.835h9.333v23h18.667v10h-28V602.835z M276.5,581.835v-44.333
			h39.333v44.667H304.5v-9h6.333v-13.333h-7v-7h-13.667v7h-5.333v13.667h6v8.333H276.5z M318.833,636.502h-14v-6h-22v-33.334h36
			V636.502z M360.167,663.835h-30v-15h30V663.835z"/>
	</g>
	<g id="logan">
		<polygon style="fill:none;" points="193.5,909.503 193.5,890.17 211.5,890.17 211.5,866.17 190.916,866.253 190.916,863.67 
			165.5,863.67 165.5,913.335 169.5,913.335 169.5,923.835 165.5,923.835 165.5,937.835 249,937.835 249,909.503 		"/>
		<polygon style="fill:none;" points="245.5,872.337 223.5,872.337 223.5,899.837 214.833,899.837 214.833,907.17 245.5,907.17 		
			"/>
	</g>
	<polygon id="bj" style="fill:none;" points="388.833,864.168 478.167,864.168 478.167,924.835 468.834,924.835 456.167,924.835 
		456.167,919.502 437.833,919.502 437.833,913.835 422.5,913.835 412.167,913.835 412.167,922.502 388.833,922.502 	"/>
	<path id="cathey" style="fill:none;" d="M422.833,924.835H407.5c0,0,0,12.328,0,12.333c0,0.372,1.667,1.166,1.891,1.289
		c2.227,1.226,4.706,1.958,7.173,2.517c7.114,1.609,14.386,1.623,21.648,1.575c6.858-0.046,13.72,0.056,20.578-0.13
		c0.251-0.007,4.377-0.075,4.377-0.084v-12.833H455.5v-4.667h-17.667v-11h-15.001L422.833,924.835z"/>
	<path id="south" style="fill:none;" d="M471.833,949.168v4h-43.667v5.334H421.5v-3.667c0,0-4.167,1.334-14.595-0.518
		c-8.071-2.315-14.071-6.815-14.071-6.815v66.666H480.5v-55.666h3v-9.334H471.833z M428.5,1002.002h-23.833v-30.667H428.5V1002.002z
		 M468.333,1002.002h-28v-35.167h28V1002.002z"/>
	<path id="law" style="fill:none;" d="M586.168,919.17c-6.186,0-11.44,3.058-13.449,7.333h-2.551v-44.667h4.667v-0.334h0.367
		c1.247,5.174,5.622,9.001,10.845,9.001c6.193,0,11.213-5.372,11.213-12.001c0-6.627-5.02-11.999-11.213-11.999
		c-4.996,0-9.226,3.5-10.674,8.332l-23.871,0.001v49.999h-8.333v-5.332h-33.333v6.667h-8.333v-1.335h-32.667v10.001h41.333v17.667
		h32.333V933.17h9.333v14.332h18v-12.666h3v-0.422c2.092,4.148,7.266,7.089,13.334,7.089c7.917,0,14.333-4.999,14.333-11.168
		C600.501,924.169,594.084,919.17,586.168,919.17z"/>
	<path id="harris" style="fill:none;" d="M694.25,864.335v27.25H674v-27.25h-50.75v58.75h81v-58.75H694.25z M651,906.585h-15.5
		v-25.5H651V906.585z"/>
	<rect id="new_grad" x="864.167" y="864.335" style="fill:none;" width="77.333" height="41.166"/>
	<polygon id="ida" style="fill:none;" points="750,629.085 790.5,629.085 790.5,655.085 792.667,655.085 792.667,648.585 
		813.25,648.585 813.25,674.335 750,674.335 750,660.585 767.75,660.585 767.75,639.335 750,639.335 	"/>
	<polygon id="booth" style="fill:none;" points="759.75,531.335 804.75,531.335 804.75,535.835 816,535.835 816,538.335 
		818.75,538.335 818.75,568.585 822.5,568.585 822.5,630.085 811.25,630.085 811.25,639.835 795.75,639.835 795.75,622.585 
		793,622.585 793,587.835 767.75,587.835 767.75,597.085 756.25,597.085 756.25,595.585 750,595.585 750,577.585 747.5,577.585 
		747.5,544.333 759.75,544.333 	"/>
	<path id="oriental" style="fill:none;" d="M670.167,562.501v-33.333H622.5v40.333h12v8.667h26.333v-8.333H671.5v-7.334H670.167z
		 M660.5,561.835h-27.667v-13.667H660.5V561.835z"/>
	<polygon id="rock_2_" style="fill:none;" points="684.833,585.585 684.833,603.835 695.833,603.835 695.833,618.501 
		685.167,618.501 685.167,651.71 670.5,651.71 670.5,618.647 665.5,618.647 665.5,604.835 671.5,604.835 671.5,585.585 	"/>
	<polygon id="quadr" style="fill:none;" points="624.25,361.335 648.75,361.335 648.75,356.585 661.5,356.585 661.5,379.585 
		633.25,379.585 633.25,376.085 624.25,376.085 	"/>
	<polygon id="sieh" style="fill:none;" points="695.836,483.166 695.836,485.166 686.5,485.166 686.5,445.835 670.25,445.835 
		670.25,483.166 665.336,483.166 642.25,483.166 629.836,483.166 627.086,485.916 627.086,490.833 629.669,490.833 629.836,507.5 
		648.669,507.5 648.669,499.666 665.669,499.666 665.669,492.333 672.669,492.333 672.669,499.916 680.336,499.916 680.336,492.333 
		683.5,492.333 698.169,492.333 698.169,507.5 705.169,507.5 705.169,505.166 709.669,505.166 709.669,483.166 	"/>
	<g id="eastBuild">
		<rect x="629.25" y="416.335" style="fill:none;" width="23.75" height="10.25"/>
		<rect x="629.25" y="432.585" style="fill:none;" width="26.5" height="8.5"/>
		<rect x="629.25" y="444.835" style="fill:none;" width="18.25" height="9"/>
		<rect x="629.25" y="457.085" style="fill:none;" width="18.5" height="8.75"/>
	</g>
	<g id="multi">
		<rect x="671.5" y="368.085" style="fill:none;" width="8" height="9.25"/>
		<rect x="671.5" y="380.835" style="fill:none;" width="8" height="12.25"/>
		<rect x="694.25" y="377.335" style="fill:none;" width="15.419" height="11.5"/>
	</g>
	<rect id="henry" x="505" y="120.335" style="fill:none;" width="96" height="43"/>
	<g id="north">
		<path style="fill:none;" d="M581.75,21.335c1.25-5.5,0.25-13,0.25-13s-16.009-1.847-39.495,0.5C535,9.585,512,16.335,512,16.335
			v10.5l21-4.5v22h-20v26l19.5-0.5c0,0,5.051-2.701,6-3.5c1.426-1.201,3.5-4.5,3.5-4.5l3.25,3.25L577,32.335
			C577,32.335,581.413,22.818,581.75,21.335z"/>
		<path style="fill:none;" d="M594.75,29.835c0,0-6.75,3.25-9,5.25s-8.25,7-8.25,7l3,3.5c0,0-5.5,0.5-14.5,14.75
			c-3.114,4.93-5.75,11.25-5.75,11.25s-1,2-1.5,6.25c0.25,5,0,27.5,0,27.5h10.75c0,0-0.5-15.75,0.75-28.25
			c0.531-5.315,5.085-10.606,8-15.75c4.25-7.5,7-9.75,8.5-11.75s8.75-1.75,8.75-1.75s0.25,7.75-0.25,16.25s-5.75,34.5-5.75,34.5
			l10.5-0.5l6.25-38v-30.25H594.75z"/>
	</g>
	<path id="smart" style="fill:none;" d="M463.5,90.835v4h-12v-2.667h-7.333v70h38V90.835H463.5z M480.167,126.168h-33.333v-15.333
		h33.333V126.168z"/>
	<g id="northBuild">
		<path style="fill:none;" d="M432.167,92.168H397.5c0,0-1.667,5.667,0.667,12.667s3.333,8.667,3.333,8.667l2-3.333l9.333-0.667
			l3.333,4l7.333-0.667v-2.667h5.333l4-0.667L432.167,92.168z"/>
		<polygon style="fill:none;" points="396.833,151.501 393.5,151.501 393.5,156.168 397.5,156.168 397.5,159.501 406.167,159.501 
			406.167,162.835 411.5,162.835 411.5,160.168 421.5,160.168 421.5,147.501 396.833,147.501 		"/>
	</g>
	<polygon id="alumni" style="fill:none;" points="740.5,144.835 767.5,144.835 767.5,160.335 757.5,160.335 757.5,154.835 
		740.5,154.835 	"/>
</g>
</svg>
