<?xml version="1.0" encoding="iso-8859-1"?>
<!-- Generator: Adobe Illustrator 16.0.0, SVG Export Plug-In . SVG Version: 6.00 Build 0)  -->
<!DOCTYPE svg PUBLIC "-//W3C//DTD SVG 1.1//EN" "http://www.w3.org/Graphics/SVG/1.1/DTD/svg11.dtd">
<svg version="1.1" id="Layer_1" xmlns="http://www.w3.org/2000/svg" xmlns:xlink="http://www.w3.org/1999/xlink" x="0px" y="0px"
	 width="1197.178px" height="1077.543px" viewBox="0 0 1197.178 1077.543" style="enable-background:new 0 0 1197.178 1077.543;"
	 xml:space="preserve">
<path id="quad" style="fill:#FFFFFF;" d="M385.089,351.435v330.034H603.52V351.435H385.089z M393,357.001h13v4.333h29.667v-4.333
	h10.666v18.5h-8.501l0.001-4h-10.171l0.005-1.538H393V357.001z M393,453.167l3.167-1.833v-1.999H393v-73.834h16.001v51.666h15.666
	v12.834h-10.833v13.833h15.667v6.167h7.583v-6.5h15.25v-18.667h14.333v19.167h14.5v15h-26.333v-2.916h-39.667l-6.833,6.416v10.333
	H393V453.167z M449.667,595.169v10h-23v-10H444v-3.333h13v-14.168h-13v-10.333h33.333v9.666h-9.666v19.667H457v-1.499H449.667z
	 M413.5,489.501v53.667h-13.667v-53.667H413.5z M576.375,580.585h-11v2.418h-0.75l-0.125,1.332h-1v1l-3.125,0.125v-1l-0.875-0.125
	v-1.332h-0.875v-2.293h-12.5v-2.75h-8v19.25H532v4.461h0.001v4.667h6.166v10h4.5v23.166H537v10.334h-5.166v5.167H552v-8.834h4.5
	v8.834h9.667v21.165h-11v-2.499h-25.5l-2.333,2.333v0.166h-15.667v-1.498h-34.334v1.498h-11h-7.5v-4.167h-24.667v4.167H393v-13.833
	h2.666l-0.166-67.168H393v-44.001h21.834v12.333h-2.667v5.168h2.667v8.833h-2.501v5.333h2.501v12.334h-8.001l0.5,63.501h3.5
	l4.5-4.167h46.5v-4.333h-2.5v-16.333H457v-13h1.666v-15.668h9.667v15.668h2.833v13H468.5v15.833h-2.167v5.335h4.833v2H519.5v-2
	h7.751h0.083v-5.167l-6,0.006v-43.34h5.917v-4.833v-4.461h-4.126v-15.209H512.75V566.21h30.5v3h2.875v-3h11.25v-1.875h9.125v1.75
	h9.875V580.585z M509.5,397.502l8-6.667h3.333v11.667l-1.333,2.333v9h-6.333l-11.417-11.416l3.5-3.5l-4.458-4.459l3.708-9.625
	h13.375l-3.042,3.667l-8.208,0.208l-1.125,5.375L509.5,397.502z M597.5,405.668h-2.128l-0.039,36.834h-4.583v25.083h-11.5v2.75
	H567.5v-3h-13.75v-4.5h-2.25v-3.5H547v9.75h-38.5v-17.75h8.5v2.25h8.25v-6.25h-4.5v-13h15.5v13h-5.5v6.5h8.5v-2.5H548v5.083h7
	v-9.333l24.25,0.25v-4.833h1.583v-2.334h-4v-57.333h-1.166h-34.415l-0.002-11h-5v-0.167h-2.75v18h2.75v27.667h-13.125v-27.5h5.75
	v-17.75h-5.5v6h-10.5v-6.125h-8.25v-2.25H487.5v2.375h-22v17.5h6v11h11.25v16.75h-23v-27.667h1.083v-17.667h-7.5v-15.416H487v8.75
	h17.833v-8.75h31.417H579v1h17.833v25.25h0.667V405.668z"/>
</svg>
