<?xml version="1.0" encoding="iso-8859-1"?>
<!-- Generator: Adobe Illustrator 16.0.0, SVG Export Plug-In . SVG Version: 6.00 Build 0)  -->
<!DOCTYPE svg PUBLIC "-//W3C//DTD SVG 1.1//EN" "http://www.w3.org/Graphics/SVG/1.1/DTD/svg11.dtd">
<svg version="1.1" id="Layer_1" xmlns="http://www.w3.org/2000/svg" xmlns:xlink="http://www.w3.org/1999/xlink" x="0px" y="0px"
	 width="1197.178px" height="1077.543px" viewBox="0 0 1197.178 1077.543" style="enable-background:new 0 0 1197.178 1077.543;"
	 xml:space="preserve">
<g id="physics">
	<polygon id="physics5" style="fill:none;" points="368.167,255.21 368.5,182.602 339.834,182.602 340.167,255.21 338.667,255.21 
		338.667,316.354 305.5,316.354 305.5,332.834 371.833,332.834 371.833,255.21 	"/>
	<rect id="physics4" x="316.833" y="182.602" style="fill:none;" width="18" height="39.899"/>
	<rect id="physics3" x="282.75" y="182.602" style="fill:none;" width="30.5" height="35.983"/>
	<rect id="physics2" x="231.5" y="206.835" style="fill:none;" width="23.25" height="31.5"/>
	<polygon id="physics1" style="fill:none;" points="340.5,358.585 337.5,358.585 337.5,357.001 335.5,357.001 335.5,355.085 
		301.5,355.085 301.5,375.501 303.5,375.501 322.25,401.085 328.5,401.085 328.5,395.085 331,395.085 331,380.96 333.5,380.96 
		333.5,369.71 337.75,369.71 337.75,366.251 340.75,366.251 340.75,384.835 360.75,384.835 360.75,396.335 354,396.335 354,401.335 
		360.75,401.335 360.75,406.835 363.75,406.835 363.75,403.335 370,403.335 370,375.501 371.833,375.501 371.833,355.085 
		340.5,355.085 	"/>
</g>
<rect id="crerar" x="254.833" y="383.835" style="fill:none;" width="40.667" height="75.602"/>
<g id="med">
	<rect id="med6" x="260.5" y="468.835" style="fill:none;" width="35" height="30.333"/>
	<polygon id="med5" style="fill:none;" points="221.5,457.168 221.5,507.168 242.167,507.168 242.167,500.335 257.167,500.335 
		257.167,486.001 244.833,486.001 244.833,472.335 241.167,472.335 241.167,457.168 	"/>
	<polygon id="med4" style="fill:none;" points="301.5,355.085 221.667,355.085 221.667,436.335 247.5,436.335 247.5,375.335 
		301.5,375.335 	"/>
	<polygon id="med3" style="fill:none;" points="292.833,246.835 262.833,246.835 262.833,277.502 264.333,277.502 264.333,285.782 
		262.833,285.782 262.833,332.002 292.833,332.002 	"/>
	<polygon id="med2" style="fill:none;" points="256.501,295.834 252.834,295.834 252.834,256.834 246.501,256.834 246.501,246.835 
		225.667,246.835 225.667,249.501 222.001,249.501 222.001,290.834 220.334,290.834 220.334,332.002 256.501,332.002 	"/>
	<path id="med1" style="fill:none;" d="M330.167,582.001v-8.832H352.5v-44.667h-6.333v-3h-81.333v25.666h-33v16.167l7,3.834H264.5
		v10.832h-12.333v5.834h-22v-14.666L227,570.003h-38.5v-5.668h37.667v-40.167h-50.334v-11.666h-14.667v-6h33v-26h-11v10h-9.333v-6
		h-12v-7.333h4.333v-2.333H195.5l-0.333-55.001h-21.333v-8h-8.667v6.667h-11v-18.667h-7.333v1.333H145.5v12l-9.333-0.333
		l-5.999,23.5h-19v-38.833h-6.833v9.333H95.5v-8.167H85.333v8.167h-3.167v10.833h-9.833v-6.5h-4.667V395.71H197.5v-40.625H52v40.625
		h10.5v15.459H52v86.5h10.166v25h-9.167v151.164h54.334V546.498h14.622v3.667H132v13.166h42.666v5.5l4.75,4.75h26.917v14.75H200.5
		v-10.833h-65.667v3.667H131.5v16l2,2v78.833H199v-26.167h9.667v3.667h5.833v-3.833h10v26.333h52.334v-29.001h17.499v3.499h7.5v-3.5
		H318.5v29.002h53v-95.997H330.167L330.167,582.001z M132.833,524.168V536.5h-10.879v4.335h-14.788v-18H67.833v-25.333H72.5v-2
		h5.333c0,0,10-15.333,28.999-20.333v-12.333h4v-21.333h21v48.333H151.5v3.667h4v23.667h16l0.333,6.667l3.988,0.332L132.833,524.168
		L132.833,524.168z M147,598.335h34.5v29.5H147V598.335z M187.833,664.502h-16v7.834h-11v-8h-13.5v-16.167h40.5V664.502z
		 M229.5,599.168h-4v32h-26.333v-40H229.5V599.168z M242,665.835h-7v-20h7V665.835z M264.5,665.835h-7v-20h7V665.835z
		 M264.833,628.835h-15v-6.667h-11.667v-22.666h-4v-8.667h18v4h12.667V628.835z M330.833,602.835h9.333v23h18.667v10h-28V602.835z
		 M276.5,581.835v-44.333h39.333v44.667H304.5v-9h6.333v-13.333h-7v-7h-13.667v7h-5.333v13.667h6v8.333L276.5,581.835L276.5,581.835
		z M318.833,636.502h-14v-6h-22v-33.334h36V636.502z M360.167,663.835h-30v-15h30V663.835z"/>
</g>
<g id="logan">
	<polygon id="logan2" style="fill:none;" points="193.5,909.503 193.5,890.17 211.5,890.17 211.5,866.17 190.916,866.253 
		190.916,863.67 165.5,863.67 165.5,913.335 169.5,913.335 169.5,923.835 165.5,923.835 165.5,937.835 249,937.835 249,909.503 	"/>
	<polygon id="logan1" style="fill:none;" points="245.5,872.337 223.5,872.337 223.5,899.837 214.833,899.837 214.833,907.17 
		245.5,907.17 	"/>
</g>
<polygon id="bj" style="fill:none;" points="388.833,864.168 478.167,864.168 478.167,924.835 468.834,924.835 456.167,924.835 
	456.167,919.502 437.833,919.502 437.833,913.835 422.5,913.835 412.167,913.835 412.167,922.502 388.833,922.502 "/>
<path id="cathey" style="fill:none;" d="M422.833,924.835H407.5c0,0,0,12.328,0,12.333c0,0.372,1.667,1.166,1.891,1.289
	c2.229,1.226,4.706,1.958,7.175,2.517c7.112,1.609,14.386,1.623,21.646,1.575c6.858-0.046,13.72,0.058,20.578-0.13
	c0.251-0.007,4.377-0.075,4.377-0.084v-12.833H455.5v-4.667h-17.667v-11h-15.001L422.833,924.835z"/>
<path id="south" style="fill:none;" d="M471.833,949.168v4h-43.667v5.334H421.5v-3.667c0,0-4.167,1.334-14.595-0.518
	c-8.071-2.315-14.071-6.815-14.071-6.815v66.666H480.5v-55.666h3v-9.334H471.833z M428.5,1002.002h-23.833v-30.667H428.5V1002.002z
	 M468.333,1002.002h-28v-35.167h28V1002.002z"/>
<path id="law" style="fill:none;" d="M586.168,919.17c-6.186,0-11.439,3.058-13.449,7.333h-2.551v-44.667h4.667v-0.334h0.367
	c1.247,5.174,5.622,9.001,10.845,9.001c6.193,0,11.213-5.372,11.213-12.001c0-6.627-5.02-11.999-11.213-11.999
	c-4.996,0-9.226,3.5-10.674,8.332l-23.871,0.001v49.999h-8.333v-5.332h-33.333v6.667h-8.333v-1.335h-32.667v10.001h41.333v17.667
	h32.333V933.17h9.333v14.332h18v-12.666h3v-0.422c2.092,4.146,7.266,7.089,13.334,7.089c7.917,0,14.333-4.999,14.333-11.168
	C600.501,924.169,594.084,919.17,586.168,919.17z"/>
<path id="harris" style="fill:none;" d="M694.25,864.335v27.25H674v-27.25h-50.75v58.75h81v-58.75H694.25z M651,906.585h-15.5v-25.5
	H651V906.585z"/>
<rect id="new_grad" x="864.167" y="864.335" style="fill:none;" width="77.333" height="41.166"/>
<polygon id="ida" style="fill:none;" points="750,629.085 790.5,629.085 790.5,655.085 792.667,655.085 792.667,648.585 
	813.25,648.585 813.25,674.335 750,674.335 750,660.585 767.75,660.585 767.75,639.335 750,639.335 "/>
<polygon id="booth" style="fill:none;" points="759.75,531.335 804.75,531.335 804.75,535.835 816,535.835 816,538.335 
	818.75,538.335 818.75,568.585 822.5,568.585 822.5,630.085 811.25,630.085 811.25,639.835 795.75,639.835 795.75,622.585 
	793,622.585 793,587.835 767.75,587.835 767.75,597.085 756.25,597.085 756.25,595.585 750,595.585 750,577.585 747.5,577.585 
	747.5,544.333 759.75,544.333 "/>
<path id="oriental" style="fill:none;" d="M670.167,562.501v-33.333H622.5v40.333h12v8.667h26.333v-8.333H671.5v-7.334H670.167z
	 M660.5,561.835h-27.667v-13.667H660.5V561.835z"/>
<polygon id="rock_2_" style="fill:none;" points="684.833,585.585 684.833,603.835 695.833,603.835 695.833,618.501 
	685.167,618.501 685.167,651.71 670.5,651.71 670.5,618.646 665.5,618.646 665.5,604.835 671.5,604.835 671.5,585.585 "/>
<polygon id="quadr" style="fill:none;" points="624.25,361.335 648.75,361.335 648.75,356.585 661.5,356.585 661.5,379.585 
	633.25,379.585 633.25,376.085 624.25,376.085 "/>
<polygon id="saieh" style="fill:none;" points="695.836,483.166 695.836,485.166 686.5,485.166 686.5,445.835 670.25,445.835 
	670.25,483.166 665.336,483.166 642.25,483.166 629.836,483.166 627.086,485.916 627.086,490.833 629.669,490.833 629.836,507.5 
	648.669,507.5 648.669,499.666 665.669,499.666 665.669,492.333 672.669,492.333 672.669,499.916 680.336,499.916 680.336,492.333 
	683.5,492.333 698.169,492.333 698.169,507.5 705.169,507.5 705.169,505.166 709.669,505.166 709.669,483.166 "/>
<g id="eastBuild">
	<rect id="eastBuild4" x="629.25" y="416.335" style="fill:none;" width="23.75" height="10.25"/>
	<rect id="eastBuild3" x="629.25" y="432.585" style="fill:none;" width="26.5" height="8.5"/>
	<rect id="eastBuild2" x="629.25" y="444.835" style="fill:none;" width="18.25" height="9"/>
	<rect id="eastBuild1" x="629.25" y="457.085" style="fill:none;" width="18.5" height="8.75"/>
</g>
<g id="multi">
	<rect id="multi3" x="671.5" y="368.085" style="fill:none;" width="8" height="9.25"/>
	<rect id="multi2" x="671.5" y="380.835" style="fill:none;" width="8" height="12.25"/>
	<rect id="multi1" x="694.25" y="377.335" style="fill:none;" width="15.419" height="11.5"/>
</g>
<rect id="henry" x="505" y="120.335" style="fill:none;" width="96" height="43"/>
<g id="north" style="display:none;">
	<path id="north2" style="display:inline;fill:none;" d="M581.75,21.335c1.25-5.5,0.25-13,0.25-13s-16.009-1.847-39.495,0.5
		C535,9.585,512,16.335,512,16.335v10.5l21-4.5v22h-20v26l19.5-0.5c0,0,5.051-2.701,6-3.5c1.426-1.201,3.5-4.5,3.5-4.5l3.25,3.25
		L577,32.335C577,32.335,581.413,22.818,581.75,21.335z"/>
	<path id="north1" style="display:inline;fill:none;" d="M594.75,29.835c0,0-6.75,3.25-9,5.25s-8.25,7-8.25,7l3,3.5
		c0,0-5.5,0.5-14.5,14.75c-3.114,4.93-5.75,11.25-5.75,11.25s-1,2-1.5,6.25c0.25,5,0,27.5,0,27.5h10.75c0,0-0.5-15.75,0.75-28.25
		c0.531-5.315,5.085-10.606,8-15.75c4.25-7.5,7-9.75,8.5-11.75s8.75-1.75,8.75-1.75s0.25,7.75-0.25,16.25s-5.75,34.5-5.75,34.5
		l10.5-0.5l6.25-38v-30.25H594.75z"/>
</g>
<path id="smart" style="fill:none;" d="M463.5,90.835v4h-12v-2.667h-7.333v70h38V90.835H463.5z M480.167,126.168h-33.333v-15.333
	h33.333V126.168z"/>
<g id="northBuild" style="display:none;">
	<path id="northBuild2" style="display:inline;fill:none;" d="M432.167,92.168H397.5c0,0-1.667,5.667,0.667,12.667
		s3.333,8.667,3.333,8.667l2-3.333l9.333-0.667l3.333,4l7.333-0.667v-2.667h5.333l4-0.667L432.167,92.168z"/>
	<polygon id="northBuild1" style="display:inline;fill:none;" points="396.833,151.501 393.5,151.501 393.5,156.168 397.5,156.168 
		397.5,159.501 406.167,159.501 406.167,162.835 411.5,162.835 411.5,160.168 421.5,160.168 421.5,147.501 396.833,147.501 	"/>
</g>
<polygon id="alumni" style="display:none;fill:none;" points="740.5,144.835 767.5,144.835 767.5,160.335 757.5,160.335 
	757.5,154.835 740.5,154.835 "/>
<ellipse id="mansueto" transform="matrix(0.1795 0.9838 -0.9838 0.1795 621.6856 -173.8553)" style="display:none;opacity:0.5;fill:#FFFFFF;enable-background:new    ;" cx="415.065" cy="285.758" rx="30.929" ry="16.543"/>
<path id="regenstein" style="display:none;fill:none;" d="M428.501,275.501l6.667-8.667v-20.667h15v-13.333h14.667v-10.333h16.333
	v13.333h26.333v-3h7v-6.333h7v43h-6v5.333h-3v9.667h5.333v36.333h-4.333v-5.667h-4.333V312.5h-2.667v-9.333h-3.667V285.5h-21.333
	v11.667c0,0,0,0-15.667,0v5.667c0,0,0,0-15.667,0v6.333h-15.333V277.5l-4,4.667L428.501,275.501z"/>
<path id="bartlett" style="display:none;fill:none;" d="M592.833,265.501v14.667h3.667v4.414h3.333v13.586h-2.667v5h-4v15.333
	h-3.333v8h-15.667v-8h-2.667v-21h-4.333v-10.667h3.667c0-21.333,0-21.333,0-21.333l0,0H592.833z"/>
<g id="maxp" style="display:none;">
	<polygon id="maxp3" style="display:inline;fill:none;" points="543.488,182.602 543.467,201.267 569.967,201.267 569.967,194.101 
		576.8,194.101 576.8,236.767 572.8,236.767 572.8,230.434 539.3,230.434 539.3,245.934 590.8,245.934 590.8,241.269 
		593.134,241.269 593.134,182.602 	"/>
	<rect id="maxp2" x="444.8" y="182.602" style="display:inline;fill:none;" width="84.25" height="17.083"/>
	<polygon id="maxp1" style="display:inline;fill:none;" points="394.8,223.435 399.8,223.435 399.8,228.685 407.3,228.685 
		407.3,223.435 410.05,223.435 410.05,199.685 432.3,199.685 432.3,182.602 394.8,182.602 	"/>
</g>
<polygon id="hutch" style="display:none;fill:none;" points="541.252,382.835 575.667,382.835 596.833,382.835 596.833,357.585 
	579,357.585 579,356.585 536.25,356.585 536.25,371.835 541.25,371.835 "/>
<polygon id="snell_1_" style="display:none;fill:none;" points="406,361.334 435.667,361.334 435.667,357.001 446.333,357.001 
	446.333,375.501 437.832,375.501 437.833,371.501 427.662,371.501 427.667,369.963 393,369.963 393,357.001 406,357.001 "/>
<polygon id="reynolds" style="display:none;fill:none;" points="595.372,405.668 597.5,405.668 597.5,382.835 576.833,382.835 
	576.833,440.168 580.833,440.168 580.833,442.502 595.333,442.502 "/>
<polygon id="mainNorth" style="display:none;fill:none;" points="536.25,417.335 536.25,389.668 533.5,389.668 533.5,371.668 
	536.25,371.668 536.25,356.585 504.833,356.585 504.833,365.335 487,365.335 487,356.585 453.333,356.585 453.333,372.001 
	460.833,372.001 460.833,389.668 459.75,389.668 459.75,417.335 482.75,417.335 482.75,400.585 471.5,400.585 471.5,389.585 
	465.5,389.585 465.5,372.085 487.5,372.085 487.5,369.71 504.625,369.71 504.625,371.96 512.875,371.96 512.875,378.085 
	523.375,378.085 523.375,372.085 528.875,372.085 528.875,389.835 523.125,389.835 523.125,417.335 "/>
<g id="lab" style="display:none;">
	<polygon id="lab2" style="display:inline;fill:none;" points="466.667,454.001 466.667,434.834 452.334,434.834 452.334,453.501 
		437.084,453.501 437.084,460.001 429.501,460.001 429.501,453.834 413.834,453.834 413.834,440.001 424.667,440.001 
		424.667,427.167 409.001,427.167 409.001,375.501 393,375.501 393,449.335 396.167,449.335 396.167,451.334 393,453.167 
		393,482.834 408.334,482.834 408.334,472.501 415.167,466.085 454.834,466.085 454.834,469.001 481.167,469.001 481.167,454.001 	
		"/>
	<rect id="lab1" x="342.167" y="424.502" style="display:inline;fill:none;" width="26" height="45.667"/>
</g>
<polygon id="bookstore" style="display:none;fill:none;" points="353.167,480.168 371.501,480.168 371.501,507.168 339.834,507.168 
	339.834,489.168 352.834,488.502 "/>
<rect id="edward" x="399.833" y="489.501" style="display:none;fill:#FAFFD8;" width="13.667" height="53.667"/>
<polygon id="cobb" style="display:none;fill:none;" points="393,551.168 414.834,551.168 414.834,563.501 412.167,563.501 
	412.167,568.669 414.834,568.669 414.834,577.502 412.333,577.502 412.333,582.835 414.834,582.835 414.834,595.169 393,595.169 "/>
<polygon id="swift" style="display:none;fill:none;" points="444,567.335 477.333,567.335 477.333,577.001 467.667,577.001 
	467.667,596.668 457,596.668 457,577.668 444,577.668 "/>
<polygon id="bond" style="display:none;fill:none;" points="457,595.169 449.667,595.169 449.667,605.169 426.667,605.169 
	426.667,595.169 444,595.169 444,591.836 457,591.836 "/>
<polygon id="classicsBuilds" style="display:none;fill:none;" points="395.5,595.169 406.833,595.169 407.333,658.67 
	410.833,658.67 415.333,654.503 461.833,654.503 461.833,650.17 459.333,650.17 459.333,633.837 457,633.837 457,620.837 
	458.666,620.837 458.666,605.169 468.333,605.169 468.333,620.837 471.166,620.837 471.166,633.837 468.5,633.837 468.5,649.67 
	466.333,649.67 466.333,676.17 458.833,676.17 458.833,672.003 434.166,672.003 434.166,676.17 393,676.17 393,662.337 
	395.666,662.337 "/>
<polygon id="harper" style="display:none;fill:none;" points="466.333,655.005 471.166,655.005 471.166,657.005 519.5,657.005 
	519.5,655.005 527.334,655.005 527.334,676.17 511.667,676.17 511.667,674.672 477.333,674.672 477.333,676.17 466.333,676.17 "/>
<polygon id="ssr" style="display:none;fill:none;" points="555.167,676.17 555.167,673.671 529.667,673.671 527.251,676.087 
	527.251,655.005 552,655.005 552,646.171 556.5,646.171 556.5,655.005 566.167,655.005 566.167,676.17 "/>
<polygon id="stuart" style="display:none;fill:none;" points="527.334,649.838 527.334,655.005 531.834,655.005 531.834,649.838 
	537,649.838 537,639.504 542.667,639.504 542.667,616.338 538.167,616.338 538.167,606.338 532.001,606.338 532.001,601.671 
	527.251,601.671 527.251,606.504 521.334,606.504 521.334,649.844 "/>
<polygon id="rosenwald" style="display:none;fill:none;" points="532,597.21 532,601.671 527.251,601.671 527.251,597.21 
	523.125,597.21 523.125,582.001 512.75,582.001 512.75,566.21 543.25,566.21 543.25,569.21 546.125,569.21 546.125,566.21 
	557.375,566.21 557.375,564.335 566.5,564.335 566.5,566.085 576.375,566.085 576.375,580.585 565.375,580.585 565.375,583.003 
	564.625,583.003 564.5,584.335 563.5,584.335 563.5,585.335 560.375,585.46 560.375,584.46 559.5,584.335 559.5,583.003 
	558.625,583.003 558.625,580.71 546.125,580.71 546.125,577.96 538.125,577.96 538.125,597.21 "/>
<polygon id="ryeck" style="display:none;fill:none;" points="579.25,470.335 579.25,467.585 590.75,467.585 590.75,442.502 
	579.25,442.502 579.25,447.335 555,447.085 555,456.418 548,456.418 548,451.335 539.25,451.335 539.25,453.835 530.75,453.835 
	530.75,447.335 536.25,447.335 536.25,434.335 520.75,434.335 520.75,447.335 525.25,447.335 525.25,453.585 517,453.585 
	517,451.335 508.5,451.335 508.5,469.085 547,469.085 547,459.335 551.5,459.335 551.5,462.835 553.75,462.835 553.75,467.335 
	567.5,467.335 567.5,470.335 "/>
<path id="ratner" style="display:none;fill:none;" d="M368.5,22.835h-26.25v-5H310.5v55.75h-2v13.5h2.5v34h-9.5v35.25h48.25v-35.25
	h-4.25V94.979c1.181,0.389,2.439,0.606,3.75,0.606c6.627,0,12-5.372,12-12c0-2.503-0.769-4.827-2.08-6.75h9.33V22.835z"/>
</svg>
