<?xml version="1.0" encoding="iso-8859-1"?>
<!-- Generator: Adobe Illustrator 16.0.0, SVG Export Plug-In . SVG Version: 6.00 Build 0)  -->
<!DOCTYPE svg PUBLIC "-//W3C//DTD SVG 1.1//EN" "http://www.w3.org/Graphics/SVG/1.1/DTD/svg11.dtd">
<svg version="1.1" id="UCDirectoryMap_xA0_Image_1_"
	 xmlns="http://www.w3.org/2000/svg" xmlns:xlink="http://www.w3.org/1999/xlink" x="0px" y="0px" width="1457.355px"
	 height="1077.543px" viewBox="0.322 -0.437 1457.355 1077.543" style="enable-background:new 0.322 -0.437 1457.355 1077.543;"
	 xml:space="preserve">
<ellipse id="mansueto" transform="matrix(-0.1795 -0.9838 0.9838 -0.1795 205.7261 740.7498)" style="display:none;opacity:0.5;fill:#FFFFFF;enable-background:new    ;" cx="411.775" cy="284.582" rx="30.927" ry="16.541"/>
<path id="regenstein" style="display:none;fill:none;" d="M425.501,274.501l6.667-8.667v-20.667h15v-13.333h14.667v-10.333h16.333
	v13.333h26.333v-3h7v-6.333h7v43h-6v5.333h-3v9.667h5.333v36.333h-4.333v-5.667h-4.333v-2.667h-2.667v-9.333h-3.667v-17.667h-21.333
	v11.667c0,0,0,0-15.667,0v5.667c0,0,0,0-15.667,0v6.333h-15.333v-31.667l-4,4.667L425.501,274.501z"/>
<path style="display:none;fill:none;" d="M600.501,282.501"/>
<path id="bartlett" style="display:none;fill:none;" d="M589.833,265.501v14.667h3.667v4.414h3.333v13.586h-2.667v5h-4v15.333h-3.333
	v8h-15.667v-8h-2.667v-21h-4.333v-10.667h3.667c0-21.333,0-21.333,0-21.333l0,0H589.833z"/>
<image style="display:none;overflow:visible;enable-background:new    ;" width="16200" height="11978" id="UCDirectoryMap_xA0_Image" xlink:href="../../../Documents/F9A66D705A544DE.png"  transform="matrix(0.09 0 0 0.09 0.3223 -0.4365)">
</image>
<polygon id="maxp3" style="fill:none;" points="541.167,200.167 567.667,200.167 567.667,193 574.5,193 574.5,235.667
	570.5,235.667 570.5,229.333 537,229.333 537,244.833 588.5,244.833 588.5,240.168 590.833,240.168 590.833,181.502
	541.188,181.502 "/>
<rect id="maxp2" x="442.5" y="181.502" style="fill:none;" width="84.25" height="17.083"/>
<path id="maxp" style="fill:none;" d="M430,181.502v17.083h-22.25v23.75H405v5.25h-7.5v-5.25h-5v-40.833H430z"/>
</svg>
