<?xml version="1.0" encoding="iso-8859-1"?>
<!-- Generator: Adobe Illustrator 16.0.0, SVG Export Plug-In . SVG Version: 6.00 Build 0)  -->
<!DOCTYPE svg PUBLIC "-//W3C//DTD SVG 1.1//EN" "http://www.w3.org/Graphics/SVG/1.1/DTD/svg11.dtd">
<svg version="1.1" xmlns="http://www.w3.org/2000/svg" xmlns:xlink="http://www.w3.org/1999/xlink" x="0px" y="0px"
	 width="1457.355px" height="1077.543px" viewBox="0.322 -0.437 1457.355 1077.543"
	 style="enable-background:new 0.322 -0.437 1457.355 1077.543;" xml:space="preserve">
<g id="Layer_2">
	<rect style="fill:#FFFFFF;" width="1144.822" height="1076.235"/>
	<path style="fill:#333333;" d="M1144.818,352.424v-14.386H729.997V177.232h98.821v-11.579h-98.821V-0.537h-13.998v166.189H614.823
		V-0.537h-14v166.189h-216V-0.537h-14v166.189h-158V-0.537h-14v166.189h-151V-0.537h-14v166.189h-32.5v11.579h32.5v160.807h-32.5
		v14.386h32.5v330.629h-32.5v11.529h32.5v37.471h-32.5v14.387h32.5v54.281h-32.5v14.385h32.5v29.947h-32.5v14.387h32.5v159.281
		h-32.5v11.859h32.5v42.066h14v-42.066h209.215v42.938h8.521v-42.938h105.265v24.666h14v-24.666h218.74v42.938h8.521v-42.938
		h103.916v24.666h13.998v-24.666h106.821v-11.859H729.997V859.44h112.821v-14.387H729.997v-29.947h116.821v-14.385H729.997V746.44
		h119.821v-14.387H729.997v-37.471h124.821v-11.529H729.997V352.424H1144.818z M47.823,177.232h151v160.807h-151V177.232z
		 M47.823,352.424h151v330.629h-151V352.424z M257.038,1018.722H47.823V859.44h209.215V1018.722z M370.823,1018.722H265.559V859.44
		h105.265V1018.722z M370.823,845.054H265.559v-2.807h-8.521v2.807H47.823v-29.947h323V845.054z M370.823,800.722h-323V746.44h323
		V800.722z M370.823,732.054h-323v-37.471h323V732.054z M370.823,683.054h-158V352.424h158V683.054z M370.823,338.039h-158V177.232
		h158V338.039z M384.823,177.232h216v160.807h-216V177.232z M384.823,352.424h216v330.629h-216V352.424z M603.563,1018.722h-218.74
		V859.44h218.74V1018.722z M715.999,1018.722H612.083V859.44h103.916V1018.722z M715.999,845.054H612.083v-2.807h-8.521v2.807
		h-218.74v-29.947h331.176V845.054z M715.999,800.722H384.823V746.44h331.176V800.722z M715.999,732.054H384.823v-37.471h216h14
		h101.176V732.054z M715.999,683.054H614.823V352.424h101.176V683.054z M715.999,338.039H614.823V177.232h101.176V338.039z"/>
</g>
<g id="UCDirectoryMap_xA0_Image_1_" style="display:none;">
	
		<ellipse id="Mansuetto" transform="matrix(-0.1795 -0.9838 0.9838 -0.1795 208.4381 745.4121)" style="display:inline;opacity:0.5;fill:#FFFFFF;enable-background:new    ;" cx="415.075" cy="285.782" rx="30.927" ry="16.541"/>
	<path id="regenstein" style="display:inline;fill:none;" d="M428.501,275.501l6.667-8.667v-20.667h15v-13.333h14.667v-10.333
		h16.333v13.333h26.333v-3h7v-6.333h7v43h-6v5.333h-3v9.667h5.333v36.333h-4.333v-5.667h-4.333v-2.667h-2.667v-9.333h-3.667v-17.667
		h-21.333v11.667c0,0,0,0-15.667,0v5.667c0,0,0,0-15.667,0v6.333h-15.333v-31.667l-4,4.667L428.501,275.501z"/>
	<path id="barlett" style="display:inline;fill:none;" d="M592.833,265.501v14.667h3.667v4.414h3.333v13.586h-2.667v5h-4v15.333
		h-3.333v8h-15.667v-8h-2.667v-21h-4.333v-10.667h3.667c0-21.333,0-21.333,0-21.333l0,0H592.833z"/>
	
		<image style="overflow:visible;" width="16200" height="11963" xlink:href="img/campus.png"  transform="matrix(0.09 0 0 0.09 0.3408 -0.4365)">
	</image>
	
		<image style="overflow:visible;" width="872" height="1058" xlink:href="../../../Desktop/Screen Shot 2018-02-12 at 2.06.14 PM.png"  transform="matrix(0.7286 0 0 0.7286 157.3335 -53.3174)">
	</image>
	<g id="maxp" style="display:inline;">
		<polygon style="fill:none;" points="543.488,182.602 543.467,201.267 569.967,201.267 569.967,194.101 576.8,194.101 
			576.8,236.767 572.8,236.767 572.8,230.434 539.3,230.434 539.3,245.934 590.8,245.934 590.8,241.269 593.134,241.269 
			593.134,182.602 		"/>
		<rect x="444.8" y="182.602" style="fill:none;" width="84.25" height="17.083"/>
		<polygon style="fill:none;" points="394.8,223.435 399.8,223.435 399.8,228.685 407.3,228.685 407.3,223.435 410.05,223.435 
			410.05,199.685 432.3,199.685 432.3,182.602 394.8,182.602 		"/>
	</g>
	
		<image style="display:inline;overflow:visible;enable-background:new    ;" width="16200" height="11978" id="UCDirectoryMap_xA0_Image" xlink:href="../../../Documents/F9A66D705A544DE.png"  transform="matrix(0.09 0 0 0.09 0.3223 -0.4365)">
	</image>
	<polygon id="hutch" style="fill:none;" points="541.252,382.835 575.667,382.835 596.833,382.835 596.833,357.585 579,357.585 
		579,356.585 536.25,356.585 536.25,371.835 541.25,371.835 	"/>
	<polygon id="snell_1_" style="display:inline;fill:none;" points="406,361.334 435.667,361.334 435.667,357.001 446.333,357.001 
		446.333,375.501 437.832,375.501 437.833,371.501 427.662,371.501 427.667,369.963 393,369.963 393,357.001 406,357.001 	"/>
	<polygon id="reynolds" style="display:inline;fill:none;" points="595.372,405.668 597.5,405.668 597.5,382.835 576.833,382.835 
		576.833,440.168 580.833,440.168 580.833,442.502 595.333,442.502 	"/>
	<polygon id="mainNorth" style="display:inline;fill:none;" points="536.25,417.335 536.25,389.668 533.5,389.668 533.5,371.668 
		536.25,371.668 536.25,356.585 504.833,356.585 504.833,365.335 487,365.335 487,356.585 453.333,356.585 453.333,372.001 
		460.833,372.001 460.833,389.668 459.75,389.668 459.75,417.335 482.75,417.335 482.75,400.585 471.5,400.585 471.5,389.585 
		465.5,389.585 465.5,372.085 487.5,372.085 487.5,369.71 504.625,369.71 504.625,371.96 512.875,371.96 512.875,378.085 
		523.375,378.085 523.375,372.085 528.875,372.085 528.875,389.835 523.125,389.835 523.125,417.335 	"/>
	<g id="lab" style="display:inline;">
		<polygon style="fill:none;" points="466.667,454.001 466.667,434.834 452.334,434.834 452.334,453.501 437.084,453.501 
			437.084,460.001 429.501,460.001 429.501,453.834 413.834,453.834 413.834,440.001 424.667,440.001 424.667,427.167 
			409.001,427.167 409.001,375.501 393,375.501 393,449.335 396.167,449.335 396.167,451.334 393,453.167 393,482.834 
			408.334,482.834 408.334,472.501 415.167,466.085 454.834,466.085 454.834,469.001 481.167,469.001 481.167,454.001 		"/>
		<rect x="342.167" y="424.502" style="fill:none;" width="26" height="45.667"/>
	</g>
	<polygon id="bookstore" style="display:inline;fill:none;" points="353.167,480.168 371.501,480.168 371.501,507.168 
		339.834,507.168 339.834,489.168 352.834,488.502 	"/>
	<rect id="edward" x="399.833" y="489.501" style="display:inline;fill:#FAFFD8;" width="13.667" height="53.667"/>
	<polygon id="cobb" style="display:inline;fill:none;" points="393,551.168 414.834,551.168 414.834,563.501 412.167,563.501 
		412.167,568.669 414.834,568.669 414.834,577.502 412.333,577.502 412.333,582.835 414.834,582.835 414.834,595.169 393,595.169 	
		"/>
	<polygon id="swift" style="display:inline;fill:none;" points="444,567.335 477.333,567.335 477.333,577.001 467.667,577.001 
		467.667,596.668 457,596.668 457,577.668 444,577.668 	"/>
	<polygon id="bond" style="display:inline;fill:none;" points="457,595.169 449.667,595.169 449.667,605.169 426.667,605.169 
		426.667,595.169 444,595.169 444,591.836 457,591.836 	"/>
	<polygon id="classicsBuilds" style="display:inline;fill:none;" points="395.5,595.169 406.833,595.169 407.333,658.67 
		410.833,658.67 415.333,654.503 461.833,654.503 461.833,650.17 459.333,650.17 459.333,633.837 457,633.837 457,620.837 
		458.666,620.837 458.666,605.169 468.333,605.169 468.333,620.837 471.166,620.837 471.166,633.837 468.5,633.837 468.5,649.67 
		466.333,649.67 466.333,676.17 458.833,676.17 458.833,672.003 434.166,672.003 434.166,676.17 393,676.17 393,662.337 
		395.666,662.337 	"/>
	<polygon id="harper" style="display:inline;fill:none;" points="466.333,655.005 471.166,655.005 471.166,657.005 519.5,657.005 
		519.5,655.005 527.334,655.005 527.334,676.17 511.667,676.17 511.667,674.672 477.333,674.672 477.333,676.17 466.333,676.17 	"/>
	<polygon id="ssr" style="display:inline;fill:none;" points="555.167,676.17 555.167,673.671 529.667,673.671 527.251,676.087 
		527.251,655.005 552,655.005 552,646.171 556.5,646.171 556.5,655.005 566.167,655.005 566.167,676.17 	"/>
	<polygon id="stuart" style="display:inline;fill:none;" points="527.334,649.838 527.334,655.005 531.834,655.005 531.834,649.838 
		537,649.838 537,639.504 542.667,639.504 542.667,616.338 538.167,616.338 538.167,606.338 532.001,606.338 532.001,601.671 
		527.251,601.671 527.251,606.504 521.334,606.504 521.334,649.844 	"/>
	<polygon id="rosenwald" style="display:inline;fill:none;" points="532,597.21 532,601.671 527.251,601.671 527.251,597.21 
		523.125,597.21 523.125,582.001 512.75,582.001 512.75,566.21 543.25,566.21 543.25,569.21 546.125,569.21 546.125,566.21 
		557.375,566.21 557.375,564.335 566.5,564.335 566.5,566.085 576.375,566.085 576.375,580.585 565.375,580.585 565.375,583.003 
		564.625,583.003 564.5,584.335 563.5,584.335 563.5,585.335 560.375,585.46 560.375,584.46 559.5,584.335 559.5,583.003 
		558.625,583.003 558.625,580.71 546.125,580.71 546.125,577.96 538.125,577.96 538.125,597.21 	"/>
	<polygon id="ryeck" style="display:inline;fill:none;" points="579.25,470.335 579.25,467.585 590.75,467.585 590.75,442.502 
		579.25,442.502 579.25,447.335 555,447.085 555,456.418 548,456.418 548,451.335 539.25,451.335 539.25,453.835 530.75,453.835 
		530.75,447.335 536.25,447.335 536.25,434.335 520.75,434.335 520.75,447.335 525.25,447.335 525.25,453.585 517,453.585 
		517,451.335 508.5,451.335 508.5,469.085 547,469.085 547,459.335 551.5,459.335 551.5,462.835 553.75,462.835 553.75,467.335 
		567.5,467.335 567.5,470.335 	"/>
	<path id="ratner" style="display:inline;fill:none;" d="M368.5,22.835h-26.25v-5H310.5v55.75h-2v13.5h2.5v34h-9.5v35.25h48.25
		v-35.25h-4.25V94.979c1.181,0.389,2.439,0.606,3.75,0.606c6.627,0,12-5.372,12-12c0-2.503-0.769-4.827-2.08-6.75h9.33V22.835z"/>
</g>
</svg>
