<?xml version="1.0" encoding="iso-8859-1"?>
<!-- Generator: Adobe Illustrator 16.0.0, SVG Export Plug-In . SVG Version: 6.00 Build 0)  -->
<!DOCTYPE svg PUBLIC "-//W3C//DTD SVG 1.1//EN" "http://www.w3.org/Graphics/SVG/1.1/DTD/svg11.dtd">
<svg version="1.1" id="Layer_1" xmlns="http://www.w3.org/2000/svg" xmlns:xlink="http://www.w3.org/1999/xlink" x="0px" y="0px"
	 width="1197.178px" height="1077.543px" viewBox="0 0 1197.178 1077.543" style="enable-background:new 0 0 1197.178 1077.543;"
	 xml:space="preserve">
<g id="midway">
	<path style="fill:#FFFFFF;" d="M383.549,743.236v56.683h336.6v-56.683H383.549z M563.364,771.452
		c-1.403,8.688-5.919,14.337-17.659,15.385h-8.973h-8.972c-11.74-1.048-16.255-6.697-17.658-15.385h-0.036
		c0.005-0.035,0.013-0.066,0.018-0.099c-0.006-0.036-0.014-0.068-0.019-0.103h0.037c1.403-8.688,5.918-14.337,17.658-15.385h17.943
		c11.741,1.048,16.256,6.697,17.659,15.385h0.036c-0.005,0.035-0.013,0.066-0.018,0.099c0.006,0.036,0.014,0.068,0.019,0.103
		H563.364z"/>
	<rect x="383.549" y="693.265" style="fill:#FFFFFF;" width="336.6" height="38.176"/>
	<rect x="383.549" y="811.715" style="fill:#FFFFFF;" width="336.6" height="34.999"/>
</g>
</svg>
